<svg viewBox="0 0 512 512" xmlns="http://www.w3.org/2000/svg" fill-rule="evenodd" clip-rule="evenodd" stroke-linejoin="round" stroke-miterlimit="2"><path d="M456 6H56C28.387 6 6 28.388 6 56v400c0 27.613 22.387 50 50 50h400c27.612 0 50-22.387 50-50V56c0-27.612-22.388-50-50-50z" fill="#0052ff" fill-rule="nonzero"/><path d="M256.737 338.138c-45.081 0-81.512-36.531-81.512-81.513 0-44.98 36.53-81.512 81.512-81.512 40.356 0 73.863 29.387 80.306 67.925h82.113C412.212 159.313 342.175 93.5 256.637 93.5c-90.069 0-163.125 73.063-163.125 163.125 0 90.07 73.056 163.125 163.125 163.125 85.538 0 155.575-65.812 162.519-149.537h-82.213c-6.443 38.537-39.85 67.925-80.206 67.925z" fill="#fff" fill-rule="nonzero"/></svg>